<svg width="158" height="158" viewBox="0 0 158 158" fill="none" xmlns="http://www.w3.org/2000/svg">
<circle cx="79" cy="79" r="77" fill="#FF854B" stroke="#FFF0DE" stroke-width="4"/>
<path fill-rule="evenodd" clip-rule="evenodd" d="M96.3509 20.7451L98.3768 21.2466L96.576 28.5847C96.3785 29.3891 96.0156 30.0497 95.4872 30.5666C94.9624 31.0844 94.3174 31.4308 93.5523 31.606C92.7881 31.7775 91.951 31.7506 91.0409 31.5253C90.1272 31.2991 89.3716 30.9318 88.7743 30.4232C88.1779 29.911 87.7672 29.3032 87.5421 28.5998C87.3169 27.8963 87.3031 27.1425 87.5005 26.3381L89.3013 19L91.3272 19.5015L89.5681 26.6696C89.4532 27.1376 89.4529 27.5796 89.567 27.9957C89.6848 28.4127 89.9056 28.7718 90.2294 29.073C90.5541 29.3706 90.9731 29.5829 91.4864 29.71C91.9997 29.8371 92.4689 29.8446 92.8941 29.7327C93.3239 29.618 93.6856 29.4031 93.9791 29.0879C94.2727 28.7728 94.477 28.3812 94.5918 27.9132L96.3509 20.7451ZM61.5112 20.8791L64.2676 32.1111L71.5848 30.2997L71.1662 28.594L65.8749 29.9039L65.1225 26.8381L69.9933 25.6324L69.5748 23.9267L64.7039 25.1325L63.9556 22.0832L69.2032 20.7841L68.7846 19.0785L61.5112 20.8791ZM48.0202 28.9196L47.2073 27.3641L55.3443 23.0749L56.1572 24.6304L53.005 26.292L57.5448 34.9796L55.7122 35.9456L51.1724 27.258L48.0202 28.9196ZM42.9967 45.6992L44.6637 44.216L43.4933 41.4464L46.7345 38.5625L49.3321 40.062L50.9991 38.5788L40.322 32.6242L38.394 34.3398L42.9967 45.6992ZM45.2017 37.6776L42.8027 39.8122L40.8907 35.2877L40.958 35.2278L45.2017 37.6776ZM26.3209 49.3645L27.7713 47.254L36.5824 49.1894L36.6591 49.0778L31.7329 41.4897L33.1833 39.3792L42.6624 45.9507L41.525 47.6056L35.0128 43.0909L34.9521 43.1792L39.6283 50.3058L38.7785 51.5423L30.4719 49.6684L30.4112 49.7567L36.9373 54.281L35.8 55.9359L26.3209 49.3645ZM34.2559 60.1221L23.4865 56.02L22.7466 57.9794L33.5161 62.0815L34.2559 60.1221ZM20.7363 76.1746L19 75.9629L20.1077 66.8005L21.844 67.0123L21.4149 70.5617L31.1125 71.7444L30.8631 73.8078L21.1654 72.6252L20.7363 76.1746ZM19.9261 89.0029L31.36 87.6085L30.4971 80.4704L28.7608 80.6822L29.3722 85.74L19.6746 86.9226L19.9261 89.0029ZM22.009 97.373L21.2691 95.4136L28.305 92.7336C29.0763 92.4398 29.8237 92.3645 30.5475 92.5077C31.2698 92.6474 31.9201 92.9837 32.4983 93.5166C33.0729 94.0508 33.5264 94.758 33.8588 95.6383C34.1925 96.522 34.3207 97.3552 34.2433 98.1378C34.1624 98.9218 33.8977 99.6066 33.4492 100.192C33.0007 100.778 32.3908 101.218 31.6195 101.511L24.5836 104.191L23.8437 102.232L30.7166 99.614C31.1654 99.4431 31.5278 99.1923 31.8039 98.8616C32.0787 98.5274 32.2475 98.1409 32.3104 97.7021C32.3698 97.2647 32.3057 96.7977 32.1183 96.3013C31.9308 95.8048 31.6704 95.4126 31.3372 95.1248C30.9991 94.8347 30.6175 94.6578 30.1925 94.5942C29.7675 94.5306 29.3306 94.5842 28.8819 94.7551L22.009 97.373ZM42.3621 126.497L49.9999 117.838L48.4381 116.448L45.6411 119.619L44.0519 118.205L45.1546 113.527L43.4119 111.976L42.2528 117.063C42.1766 117.036 42.1006 117.012 42.0246 116.99C41.3735 116.808 40.7525 116.816 40.1616 117.015C39.5653 117.214 39.0223 117.591 38.5325 118.146C38.0452 118.699 37.7353 119.286 37.6027 119.907C37.4649 120.529 37.52 121.157 37.7679 121.79C38.0131 122.421 38.4668 123.031 39.1291 123.62L42.3621 126.497ZM44.4924 120.921L41.9565 123.796L40.5252 122.523C40.1351 122.176 39.8675 121.835 39.7225 121.499C39.575 121.167 39.5379 120.837 39.6111 120.51C39.6819 120.185 39.8528 119.869 40.1238 119.562C40.3948 119.255 40.6838 119.049 40.991 118.945C41.2928 118.842 41.6157 118.845 41.9597 118.955C42.3011 119.067 42.6655 119.296 43.0528 119.64L44.4924 120.921ZM48.7521 130.756L46.9045 129.782L50.4015 123.09C50.7849 122.356 51.2947 121.802 51.9309 121.427C52.5638 121.051 53.2726 120.869 54.0572 120.883C54.8401 120.9 55.6465 121.128 56.4764 121.565C57.3097 122.005 57.9557 122.543 58.4145 123.18C58.8716 123.821 59.1255 124.51 59.1765 125.247C59.2275 125.984 59.0613 126.719 58.678 127.453L55.181 134.145L53.3335 133.171L56.7494 126.634C56.9725 126.207 57.0781 125.778 57.0665 125.347C57.0515 124.913 56.9227 124.512 56.68 124.141C56.4357 123.774 56.0794 123.467 55.6113 123.221C55.1432 122.974 54.6894 122.854 54.2499 122.86C53.8053 122.868 53.403 122.99 53.0428 123.226C52.6826 123.461 52.3911 123.792 52.168 124.219L48.7521 130.756ZM62.4986 127.415C61.8355 128.167 61.3554 129.147 61.0584 130.358C60.7614 131.568 60.7332 132.658 60.9737 133.629C61.2097 134.603 61.6594 135.414 62.3226 136.063C62.9822 136.711 63.8016 137.157 64.7809 137.399C65.7602 137.642 66.6936 137.63 67.5811 137.365C68.4651 137.099 69.2386 136.591 69.9018 135.839C70.5604 135.091 71.0382 134.112 71.3352 132.902C71.6313 131.695 71.6613 130.605 71.4253 129.631C71.1848 128.66 70.7352 127.849 70.0765 127.197C69.4132 126.548 68.592 126.102 67.6127 125.86C66.6334 125.618 65.7018 125.629 64.8179 125.895C63.9304 126.16 63.1573 126.667 62.4986 127.415ZM62.9649 133.116C62.8427 132.465 62.8861 131.714 63.0952 130.862C63.3043 130.01 63.6139 129.322 64.0241 128.8C64.4298 128.279 64.9028 127.925 65.4433 127.737C65.9828 127.553 66.5566 127.536 67.1645 127.686C67.7725 127.837 68.2726 128.12 68.665 128.535C69.0565 128.954 69.3134 129.488 69.4355 130.139C69.5532 130.793 69.5075 131.545 69.2984 132.397C69.0893 133.249 68.782 133.935 68.3763 134.455C67.9661 134.978 67.4912 135.332 66.9517 135.516C66.4112 135.704 65.837 135.723 65.2291 135.573C64.6212 135.422 64.1214 135.138 63.7299 134.719C63.3375 134.304 63.0825 133.769 62.9649 133.116ZM82.0717 139H84.4281L80.2383 131.747V127.432H78.1574V131.747L73.9675 139H76.324L79.1416 133.882H79.2541L82.0717 139ZM103.57 23.3447L98.2174 33.5877L100.065 34.5616L102.025 30.8105L103.905 31.8015L103.949 36.6091L106.011 37.6958L105.924 32.4778C106.004 32.4859 106.084 32.4914 106.163 32.4941C106.838 32.5142 107.439 32.3568 107.966 32.0219C108.497 31.6854 108.935 31.1887 109.278 30.5319C109.62 29.8783 109.781 29.2339 109.761 28.5985C109.747 27.9615 109.544 27.3654 109.152 26.8103C108.764 26.2569 108.178 25.7736 107.395 25.3606L103.57 23.3447ZM102.83 29.27L104.533 30.1678C104.991 30.4093 105.4 30.5437 105.758 30.5709C106.118 30.5949 106.432 30.5203 106.701 30.347C106.974 30.1722 107.206 29.9031 107.396 29.5396C107.586 29.1762 107.676 28.8285 107.668 28.4965C107.661 28.1611 107.546 27.8498 107.324 27.5624C107.103 27.2717 106.762 27.0047 106.3 26.7615L104.607 25.869L102.83 29.27ZM108.362 39.4318L116 30.7729L119.3 33.7095C119.924 34.2639 120.354 34.8232 120.593 35.3876C120.837 35.9517 120.912 36.494 120.818 37.0145C120.728 37.5375 120.493 38.0132 120.115 38.4417C119.805 38.794 119.471 39.0357 119.115 39.1667C118.762 39.2948 118.403 39.3353 118.039 39.2881C117.675 39.2408 117.323 39.1262 116.982 38.9441L116.908 39.0287C117.199 39.3178 117.409 39.6732 117.538 40.0948C117.672 40.5161 117.692 40.9617 117.598 41.4316C117.504 41.9014 117.264 42.3562 116.876 42.7959C116.48 43.2441 116.017 43.551 115.485 43.7167C114.956 43.8796 114.383 43.8704 113.766 43.6891C113.15 43.5078 112.512 43.1238 111.852 42.5369L108.362 39.4318ZM111.08 39.5108L112.76 41.0053C113.327 41.5097 113.831 41.7645 114.272 41.7697C114.719 41.7746 115.093 41.6051 115.397 41.2612C115.623 41.0047 115.764 40.7174 115.819 40.3993C115.877 40.0783 115.841 39.755 115.713 39.4294C115.587 39.1009 115.362 38.7931 115.04 38.506L113.318 36.974L111.08 39.5108ZM114.314 35.8451L115.859 37.2198C116.128 37.4595 116.414 37.6262 116.717 37.7198C117.023 37.8106 117.318 37.8193 117.603 37.746C117.894 37.6723 118.151 37.5087 118.375 37.255C118.67 36.9196 118.796 36.5385 118.752 36.1117C118.71 35.6874 118.46 35.2705 117.999 34.8609L116.421 33.4563L114.314 35.8451ZM116.137 46.5277L117.402 48.3685L120.28 47.5354L122.74 51.1147L120.945 53.5238L122.21 55.3647L129.383 45.4369L127.919 43.3079L116.137 46.5277ZM123.8 49.693L126.733 45.7573L126.681 45.6829L121.979 47.0438L123.8 49.693ZM137.154 61.9451L126.384 66.0472L125.726 64.3044L131.137 56.4136L131.103 56.3238L123.768 59.118L123.028 57.1586L133.797 53.0565L134.459 54.8099L129.041 62.6974L129.077 62.7924L136.418 59.9963L137.154 61.9451ZM135.675 88.3227C135.417 88.4582 135.132 88.5542 134.819 88.6109L134.563 90.7305C135.135 90.713 135.671 90.5944 136.169 90.3745C136.668 90.1546 137.113 89.8503 137.503 89.4618C137.894 89.0769 138.213 88.6208 138.462 88.0936C138.714 87.5667 138.879 86.9856 138.956 86.3501C139.047 85.5987 138.997 84.8871 138.806 84.2151C138.619 83.5437 138.299 82.9395 137.847 82.4025C137.398 81.8661 136.827 81.4209 136.133 81.0669C135.439 80.7168 134.63 80.4854 133.707 80.3728C132.501 80.2257 131.432 80.3211 130.5 80.6588C129.571 81.0007 128.821 81.5407 128.248 82.2789C127.678 83.0212 127.33 83.9213 127.202 84.9793C127.087 85.9288 127.177 86.7932 127.472 87.5727C127.77 88.3526 128.252 88.9954 128.916 89.5013C129.58 90.0071 130.401 90.3197 131.38 90.4391L132.753 90.6066L133.317 85.9469L131.698 85.7494L131.378 88.3954C130.855 88.3218 130.409 88.15 130.041 87.8803C129.659 87.5986 129.383 87.2291 129.212 86.772C129.04 86.3186 128.989 85.8004 129.06 85.2172C129.137 84.5742 129.36 84.0286 129.728 83.5803C130.099 83.1325 130.601 82.8086 131.233 82.6088C131.866 82.409 132.613 82.3618 133.477 82.4671C134.333 82.5715 135.042 82.7964 135.605 83.1419C136.171 83.4916 136.579 83.9264 136.829 84.4463C137.08 84.9662 137.168 85.5346 137.093 86.1514C137.052 86.4953 136.969 86.8076 136.844 87.0883C136.723 87.3694 136.564 87.6117 136.365 87.8151C136.167 88.0223 135.937 88.1915 135.675 88.3227ZM134.37 102.732L133.631 104.691L126.595 102.011C125.823 101.717 125.214 101.276 124.767 100.687C124.318 100.101 124.054 99.4161 123.973 98.6322C123.895 97.8496 124.023 97.0182 124.355 96.1379C124.689 95.2542 125.143 94.5452 125.718 94.0109C126.296 93.478 126.946 93.1417 127.669 93.0021C128.391 92.8624 129.138 92.9395 129.909 93.2333L136.945 95.9132L136.205 97.8727L129.332 95.2548C128.884 95.0838 128.447 95.0302 128.022 95.0938C127.595 95.161 127.214 95.3379 126.877 95.6244C126.544 95.9123 126.283 96.3045 126.096 96.8009C125.908 97.2974 125.844 97.7643 125.904 98.2017C125.965 98.644 126.134 99.0305 126.41 99.3612C126.686 99.6919 127.049 99.9428 127.497 100.114L134.37 102.732ZM118.425 107.448L127.904 114.02L129.09 112.295L119.611 105.724L118.425 107.448ZM111.931 114.699L114.852 112.1L122.49 120.758L119.509 123.41C118.653 124.172 117.765 124.653 116.845 124.853C115.924 125.058 115.013 124.986 114.113 124.635C113.212 124.284 112.366 123.659 111.573 122.76C110.777 121.858 110.26 120.934 110.022 119.989C109.782 119.046 109.821 118.123 110.141 117.219C110.459 116.318 111.055 115.478 111.931 114.699ZM114.487 114.846L113.203 115.989C112.603 116.523 112.199 117.079 111.992 117.656C111.787 118.235 111.777 118.835 111.963 119.455C112.151 120.077 112.537 120.719 113.122 121.382C113.706 122.044 114.292 122.504 114.879 122.761C115.469 123.021 116.058 123.083 116.645 122.948C117.232 122.818 117.817 122.494 118.401 121.974L119.731 120.791L114.487 114.846ZM110.144 130.496L104.791 120.253L98.1181 123.77L98.9309 125.326L103.756 122.782L105.217 125.578L100.775 127.92L101.588 129.475L106.03 127.134L107.483 129.914L102.698 132.437L103.511 133.992L110.144 130.496Z" fill="#FFF0DE"/>
<path d="M79 44L82.5912 69.1332L101.498 52.1884L88.0933 73.75L113.468 72.9223L89.3405 80.8233L109.311 96.5L85.7493 87.0435L90.9707 111.889L79 89.5L67.0293 111.889L72.2507 87.0435L48.6891 96.5L68.6595 80.8233L44.5317 72.9223L69.9067 73.75L56.5024 52.1884L75.4088 69.1332L79 44Z" fill="#FFF0DE"/>
</svg>
