<svg width="142" height="44" viewBox="0 0 142 44" fill="none" xmlns="http://www.w3.org/2000/svg">
<path d="M65.76 33H45.122V29.702L59.98 13.79V13.518H45.564V10.22H65.386V13.518L50.256 29.43V29.702H65.76V33ZM73.541 33.34C70.039 33.34 67.829 31.708 67.829 28.92C67.829 26.302 69.937 24.942 73.269 24.568L80.953 23.752V22.766C80.953 19.978 79.729 18.992 76.499 18.992C73.371 18.992 71.841 20.012 71.841 22.494V22.63H68.203V22.494C68.203 18.652 71.399 15.762 76.771 15.762C82.143 15.762 84.557 18.686 84.557 22.732V33H81.191V28.784H80.953C80.069 31.64 77.383 33.34 73.541 33.34ZM71.501 28.682C71.501 30.042 72.419 30.688 74.527 30.688C78.369 30.688 80.953 29.26 80.953 25.928L74.323 26.676C72.419 26.914 71.501 27.356 71.501 28.682ZM91.5068 14.13H87.8348V10.22H91.5068V14.13ZM91.5068 33H87.8348V16.102H91.5068V33ZM102.353 33.34C97.015 33.34 94.057 29.77 94.057 24.568C94.057 19.298 96.981 15.762 102.115 15.762C106.127 15.762 108.405 17.836 109.085 20.692H109.289V10.22H112.961V33H109.595V28.138H109.357C108.643 31.504 106.161 33.34 102.353 33.34ZM97.763 24.568C97.763 28.614 99.837 29.974 103.475 29.974C107.079 29.974 109.289 28.274 109.289 24.738V24.466C109.289 20.862 107.181 19.094 103.407 19.094C99.871 19.094 97.763 20.488 97.763 24.568ZM120.028 14.13H116.356V10.22H120.028V14.13ZM120.028 33H116.356V16.102H120.028V33ZM131.963 33.34C126.387 33.34 122.749 29.77 122.749 24.568C122.749 19.298 126.387 15.762 131.963 15.762C137.029 15.762 140.735 18.618 140.735 22.834V23.174H137.097V22.97C137.097 20.352 135.193 19.06 131.895 19.06C128.087 19.06 126.387 20.862 126.387 24.568C126.387 28.206 128.087 30.042 131.895 30.042C135.193 30.042 137.097 28.75 137.097 26.132V25.894H140.735V26.268C140.735 30.484 137.029 33.34 131.963 33.34Z" fill="#FFF0DE"/>
<path d="M13.4829 39.4523C14.8038 37.9495 16.0871 36.5304 17.3252 35.0727C18.831 33.2991 20.236 31.4496 21.1558 29.2894C22.0834 27.1112 22.3861 24.8956 20.9669 22.8346C20.311 21.8821 19.3692 21.1114 18.4895 20.3316C17.6059 19.5479 16.5968 18.9061 15.7197 18.116C14.514 17.0294 14.4493 16.1504 15.677 15.078C16.8491 14.0547 18.2152 13.2517 19.4986 12.3572C19.6642 12.2412 19.8504 12.1535 19.9966 12.004C18.2411 12.8534 16.4972 13.7363 15.1375 15.1773C14.2475 16.1208 14.1673 16.9766 15.0379 17.9265C16.0198 18.9989 17.1415 19.9501 18.2411 20.909C19.2799 21.8151 20.2036 22.7831 20.5529 24.1635C21.0031 25.9408 20.5063 27.5597 19.6874 29.1167C18.5723 31.233 17.003 33.0014 15.3277 34.6808C14.2371 35.7751 13.1038 36.8256 11.9111 37.9701C9.05976 35.0121 6.05969 32.2887 3.52405 29.1876C-1.84348 22.6232 -0.939191 12.4822 5.28088 6.71956C11.6691 0.799673 21.0135 0.371761 27.7704 5.87276C32.517 9.73816 34.517 14.868 33.887 20.9541C33.4717 24.9716 31.6877 28.3524 28.83 31.1931C25.5026 34.5004 22.1817 37.8141 18.8595 41.1266C17.6848 42.2969 16.3458 42.2892 15.1828 41.115C14.6382 40.5646 14.0767 40.0323 13.4842 39.4536L13.4829 39.4523ZM24.2658 9.68402C23.9967 9.48682 23.7626 9.29993 23.5129 9.13753C18.5555 5.91916 12.2668 6.75308 8.18781 11.1675C3.3093 16.4481 4.62757 25.3712 10.8282 28.9852C10.9744 29.0703 11.2086 29.1476 11.3405 29.0896C12.8037 28.4465 14.2332 27.7363 15.3238 26.5273C16.1764 25.5812 16.2734 24.4986 15.5334 23.4649C14.9991 22.7199 14.3328 22.0677 13.7209 21.3769C13.0379 20.6061 12.2836 19.8869 11.6808 19.0594C10.8554 17.9278 10.9822 16.6879 11.9214 15.6477C12.2371 15.2984 12.5644 14.9234 12.9641 14.694C14.47 13.8291 15.959 12.905 17.5477 12.218C19.712 11.281 21.9618 10.5411 24.2671 9.68273L24.2658 9.68402ZM26.9476 25.2977C30.0913 20.802 29.1534 13.8588 24.9968 10.3091C24.8764 10.206 24.6242 10.1184 24.5052 10.1738C22.443 11.1482 20.3602 12.1046 18.69 13.7092C17.2605 15.0832 17.2553 16.318 18.7831 17.5785C19.9721 18.5593 21.2852 19.3933 22.5581 20.2697C24.4275 21.5573 26.2672 22.863 26.9489 25.2977H26.9476Z" fill="url(#paint0_linear_620_323049)"/>
<defs>
<linearGradient id="paint0_linear_620_323049" x1="17" y1="2" x2="17" y2="42" gradientUnits="userSpaceOnUse">
<stop stop-color="#FF939A"/>
<stop offset="1" stop-color="#FF854B"/>
</linearGradient>
</defs>
</svg>
