<svg width="18" height="18" viewBox="0 0 18 18" fill="none" xmlns="http://www.w3.org/2000/svg">
<g clip-path="url(#clip0_539_204396)">
<path d="M15.75 7.50024C15.75 12.7502 9 17.2502 9 17.2502C9 17.2502 2.25 12.7502 2.25 7.50024C2.25 5.71003 2.96116 3.99314 4.22703 2.72727C5.4929 1.4614 7.20979 0.750244 9 0.750244C10.7902 0.750244 12.5071 1.4614 13.773 2.72727C15.0388 3.99314 15.75 5.71003 15.75 7.50024Z" stroke="#532822" stroke-opacity="0.8" stroke-width="1.5" stroke-linecap="round" stroke-linejoin="round"/>
<path d="M9 9.75024C10.2426 9.75024 11.25 8.74288 11.25 7.50024C11.25 6.2576 10.2426 5.25024 9 5.25024C7.75736 5.25024 6.75 6.2576 6.75 7.50024C6.75 8.74288 7.75736 9.75024 9 9.75024Z" stroke="#532822" stroke-opacity="0.8" stroke-width="1.5" stroke-linecap="round" stroke-linejoin="round"/>
</g>
<defs>
<clipPath id="clip0_539_204396">
<rect width="18" height="18" fill="white" transform="translate(0 0.000244141)"/>
</clipPath>
</defs>
</svg>
